HIERARCHY
ROOT hip
{
  OFFSET 0 90.174 2.4664
  CHANNELS 6 Xposition Yposition Zposition Zrotation Xrotation Yrotation
  JOINT abdomen
  {
    OFFSET 0 -1.186 -1.5018
    CHANNELS 6 Xposition Yposition Zposition Zrotation Xrotation Yrotation
    JOINT abdomen2
    {
      OFFSET 0 9.964 0.2134
      CHANNELS 6 Xposition Yposition Zposition Zrotation Xrotation Yrotation
      JOINT chest
      {
        OFFSET 0 13.134 -3.2573
        CHANNELS 6 Xposition Yposition Zposition Zrotation Xrotation Yrotation
        JOINT neck
        {
          OFFSET 0 20.686 -1.6905
          CHANNELS 6 Xposition Yposition Zposition Zrotation Xrotation Yrotation
          JOINT head
          {
            OFFSET 0 7.238 -0.1237
            CHANNELS 6 Xposition Yposition Zposition Zrotation Xrotation Yrotation
            End Site
            {
              OFFSET 0 0 0
            }
          }
        }
        JOINT lCollar
        {
          OFFSET 1.7069 20.075 5.0056
          CHANNELS 6 Xposition Yposition Zposition Zrotation Xrotation Yrotation
          JOINT lShldr
          {
            OFFSET 13.6458 -0.047 -4.849
            CHANNELS 6 Xposition Yposition Zposition Zrotation Xrotation Yrotation
            JOINT lForeArm
            {
              OFFSET 28.3255 -0.9759 2.2888
              CHANNELS 6 Xposition Yposition Zposition Zrotation Xrotation Yrotation
              JOINT lHand
              {
                OFFSET 22.1583 -0.53 10.8316
                CHANNELS 6 Xposition Yposition Zposition Zrotation Xrotation Yrotation
                JOINT lThumb1
                {
                  OFFSET 0.786 0.112 2.5817
                  CHANNELS 6 Xposition Yposition Zposition Zrotation Xrotation Yrotation
                  JOINT lThumb2
                  {
                    OFFSET 0.3601 -0.878 4.2331
                    CHANNELS 6 Xposition Yposition Zposition Zrotation Xrotation Yrotation
                    JOINT lThumb2_End
                    {
                      OFFSET 1.8127 -1.216 2.2227
                      CHANNELS 6 Xposition Yposition Zposition Zrotation Xrotation Yrotation
                      End Site
                      {
                        OFFSET 0.0181 -0.0122 0.0222
                      }
                    }
                  }
                }
                JOINT lCarpal1
                {
                  OFFSET 0.9571 1.114 1.7695
                  CHANNELS 6 Xposition Yposition Zposition Zrotation Xrotation Yrotation
                  JOINT lIndex1
                  {
                    OFFSET 4.1246 0.487 4.1451
                    CHANNELS 6 Xposition Yposition Zposition Zrotation Xrotation Yrotation
                    JOINT lIndex2
                    {
                      OFFSET 3.4052 -1.454 2.7682
                      CHANNELS 6 Xposition Yposition Zposition Zrotation Xrotation Yrotation
                      JOINT lIndex2_End
                      {
                        OFFSET 1.4531 -1.795 1.2713
                        CHANNELS 6 Xposition Yposition Zposition Zrotation Xrotation Yrotation
                        End Site
                        {
                          OFFSET 0.0145 -0.0179 0.0127
                        }
                      }
                    }
                  }
                  JOINT lMid1
                  {
                    OFFSET 5.6954 0.21 2.1184
                    CHANNELS 6 Xposition Yposition Zposition Zrotation Xrotation Yrotation
                    JOINT lMid2
                    {
                      OFFSET 3.9766 -1.54 2.3863
                      CHANNELS 6 Xposition Yposition Zposition Zrotation Xrotation Yrotation
                      JOINT lMid2_End
                      {
                        OFFSET 1.4042 -1.926 1.125
                        CHANNELS 6 Xposition Yposition Zposition Zrotation Xrotation Yrotation
                        End Site
                        {
                          OFFSET 0.014 -0.0193 0.0113
                        }
                      }
                    }
                  }
                }
                JOINT lCarpal2
                {
                  OFFSET 2.0956 0.66 -0.3894
                  CHANNELS 6 Xposition Yposition Zposition Zrotation Xrotation Yrotation
                  JOINT lRing1
                  {
                    OFFSET 5.0395 -0.09 2.4971
                    CHANNELS 6 Xposition Yposition Zposition Zrotation Xrotation Yrotation
                    JOINT lRing2
                    {
                      OFFSET 3.7921 -1.552 1.4806
                      CHANNELS 6 Xposition Yposition Zposition Zrotation Xrotation Yrotation
                      JOINT lRing2_End
                      {
                        OFFSET 1.4655 -1.808 0.9609
                        CHANNELS 6 Xposition Yposition Zposition Zrotation Xrotation Yrotation
                        End Site
                        {
                          OFFSET 0.0147 -0.0181 0.0096
                        }
                      }
                    }
                  }
                  JOINT lPinky1
                  {
                    OFFSET 4.9141 -1.269 0.3591
                    CHANNELS 6 Xposition Yposition Zposition Zrotation Xrotation Yrotation
                    JOINT lPinky2
                    {
                      OFFSET 3.1477 -1.685 0.8462
                      CHANNELS 6 Xposition Yposition Zposition Zrotation Xrotation Yrotation
                      JOINT lPinky2_End
                      {
                        OFFSET 0.8055 -1.585 0.7955
                        CHANNELS 6 Xposition Yposition Zposition Zrotation Xrotation Yrotation
                        End Site
                        {
                          OFFSET 0.0081 -0.0158 0.008
                        }
                      }
                    }
                  }
                }
              }
            }
          }
        }
        JOINT rCollar
        {
          OFFSET -1.7069 20.075 5.0056
          CHANNELS 6 Xposition Yposition Zposition Zrotation Xrotation Yrotation
          JOINT rShldr
          {
            OFFSET -13.6458 -0.047 -4.849
            CHANNELS 6 Xposition Yposition Zposition Zrotation Xrotation Yrotation
            JOINT rForeArm
            {
              OFFSET -28.3255 -0.9759 2.2888
              CHANNELS 6 Xposition Yposition Zposition Zrotation Xrotation Yrotation
              JOINT rHand
              {
                OFFSET -22.1583 -0.53 10.8316
                CHANNELS 6 Xposition Yposition Zposition Zrotation Xrotation Yrotation
                JOINT rThumb1
                {
                  OFFSET -0.786 0.112 2.5817
                  CHANNELS 6 Xposition Yposition Zposition Zrotation Xrotation Yrotation
                  JOINT rThumb2
                  {
                    OFFSET -0.3601 -0.878 4.2331
                    CHANNELS 6 Xposition Yposition Zposition Zrotation Xrotation Yrotation
                    JOINT rThumb2_End
                    {
                      OFFSET -1.8127 -1.216 2.2227
                      CHANNELS 6 Xposition Yposition Zposition Zrotation Xrotation Yrotation
                      End Site
                      {
                        OFFSET -0.0181 -0.0122 0.0222
                      }
                    }
                  }
                }
                JOINT rCarpal1
                {
                  OFFSET -0.9571 1.114 1.7695
                  CHANNELS 6 Xposition Yposition Zposition Zrotation Xrotation Yrotation
                  JOINT rIndex1
                  {
                    OFFSET -4.1246 0.487 4.1451
                    CHANNELS 6 Xposition Yposition Zposition Zrotation Xrotation Yrotation
                    JOINT rIndex2
                    {
                      OFFSET -3.4052 -1.454 2.7682
                      CHANNELS 6 Xposition Yposition Zposition Zrotation Xrotation Yrotation
                      JOINT rIndex2_End
                      {
                        OFFSET -1.4531 -1.795 1.2713
                        CHANNELS 6 Xposition Yposition Zposition Zrotation Xrotation Yrotation
                        End Site
                        {
                          OFFSET -0.0145 -0.018 0.0127
                        }
                      }
                    }
                  }
                  JOINT rMid1
                  {
                    OFFSET -5.6954 0.21 2.1184
                    CHANNELS 6 Xposition Yposition Zposition Zrotation Xrotation Yrotation
                    JOINT rMid2
                    {
                      OFFSET -3.9766 -1.54 2.3863
                      CHANNELS 6 Xposition Yposition Zposition Zrotation Xrotation Yrotation
                      JOINT rMid2_End
                      {
                        OFFSET -1.4042 -1.926 1.125
                        CHANNELS 6 Xposition Yposition Zposition Zrotation Xrotation Yrotation
                        End Site
                        {
                          OFFSET -0.014 -0.0193 0.0113
                        }
                      }
                    }
                  }
                }
                JOINT rCarpal2
                {
                  OFFSET -2.0956 0.66 -0.3894
                  CHANNELS 6 Xposition Yposition Zposition Zrotation Xrotation Yrotation
                  JOINT rRing1
                  {
                    OFFSET -5.0395 -0.09 2.4971
                    CHANNELS 6 Xposition Yposition Zposition Zrotation Xrotation Yrotation
                    JOINT rRing2
                    {
                      OFFSET -3.7921 -1.552 1.4806
                      CHANNELS 6 Xposition Yposition Zposition Zrotation Xrotation Yrotation
                      JOINT rRing2_End
                      {
                        OFFSET -1.4655 -1.808 0.9609
                        CHANNELS 6 Xposition Yposition Zposition Zrotation Xrotation Yrotation
                        End Site
                        {
                          OFFSET -0.0147 -0.0181 0.0096
                        }
                      }
                    }
                  }
                  JOINT rPinky1
                  {
                    OFFSET -4.9141 -1.269 0.3592
                    CHANNELS 6 Xposition Yposition Zposition Zrotation Xrotation Yrotation
                    JOINT rPinky2
                    {
                      OFFSET -3.1477 -1.685 0.8462
                      CHANNELS 6 Xposition Yposition Zposition Zrotation Xrotation Yrotation
                      JOINT rPinky2_End
                      {
                        OFFSET -0.8055 -1.585 0.7955
                        CHANNELS 6 Xposition Yposition Zposition Zrotation Xrotation Yrotation
                        End Site
                        {
                          OFFSET -0.0081 -0.0158 0.008
                        }
                      }
                    }
                  }
                }
              }
            }
          }
        }
      }
    }
  }
  JOINT lThigh
  {
    OFFSET 8.367 -8.2066 0.5982
    CHANNELS 6 Xposition Yposition Zposition Zrotation Xrotation Yrotation
    JOINT lShin
    {
      OFFSET 2.1923 -43.463 -0.4932
      CHANNELS 6 Xposition Yposition Zposition Zrotation Xrotation Yrotation
      JOINT lFoot
      {
        OFFSET 0.7333 -45.8593 -2.6451
        CHANNELS 6 Xposition Yposition Zposition Zrotation Xrotation Yrotation
        End Site
        {
          OFFSET 2.6618 -4.2699 12.3931
        }
      }
    }
  }
  JOINT rThigh
  {
    OFFSET -8.367 -8.2066 0.5982
    CHANNELS 6 Xposition Yposition Zposition Zrotation Xrotation Yrotation
    JOINT rShin
    {
      OFFSET -2.1923 -43.463 -0.4931
      CHANNELS 6 Xposition Yposition Zposition Zrotation Xrotation Yrotation
      JOINT rFoot
      {
        OFFSET -0.7333 -45.8593 -2.6451
        CHANNELS 6 Xposition Yposition Zposition Zrotation Xrotation Yrotation
        End Site
        {
          OFFSET -2.6618 -4.2699 12.3931
        }
      }
    }
  }
}
MOTION
Frames:	4
Frame Time:	0.0333333
1.7363 43.8072 13.8358 0 21.6509 -0 0 -1.186 -1.5018 0.215136 3.55278 -0.277333 0 9.964 0.2134 0.448836 7.10446 -0.569706 0 13.134 -3.2573 0.448836 7.10446 -0.569707 0 20.686 -1.6905 -7.64662 -11.0934 -17.4125 0 7.238 -0.1237 2.89601e-006 -16.7035 5.10911e-006 1.7069 20.075 5.0056 -15.1067 13.351 -32.2501 13.6458 -0.047 -4.849 -15.148 -5.56898 -0.121872 28.3255 -0.9759 2.2888 -22.6636 23.1579 -51.6659 22.1583 -0.53 10.8316 18.4169 -31.8708 -1.10298 0.786 0.112 2.5817 -0 0 3.18055e-015 0.3601 -0.878 4.2331 2.70598e-007 -5.46998e-007 -5.96855e-007 1.8127 -1.216 2.2227 -2.70598e-007 5.46998e-007 5.96855e-007 0.9571 1.114 1.7695 -0 -3.18055e-015 -0 4.1246 0.487 4.1451 -1.59028e-015 -3.18055e-015 6.36111e-015 3.4052 -1.454 2.7682 2.70598e-007 -5.46998e-007 -5.96855e-007 1.4531 -1.795 1.2713 -2.70598e-007 5.46998e-007 5.96855e-007 5.6954 0.21 2.1184 -1.59028e-015 -3.18055e-015 6.36111e-015 3.9766 -1.54 2.3863 2.70598e-007 -5.46998e-007 -5.96855e-007 1.4042 -1.926 1.125 -2.70598e-007 5.46998e-007 5.96855e-007 2.0956 0.66 -0.3894 -0 -3.18055e-015 -0 5.0395 -0.09 2.4971 -1.59028e-015 -3.18055e-015 6.36111e-015 3.7921 -1.552 1.4806 2.70598e-007 -5.46998e-007 -5.96855e-007 1.4655 -1.808 0.9609 -2.70598e-007 5.46998e-007 5.96855e-007 4.9141 -1.269 0.3591 -1.59028e-015 -3.18055e-015 6.36111e-015 3.1477 -1.685 0.8462 2.70598e-007 -5.46998e-007 -5.96855e-007 0.8055 -1.585 0.7955 -2.70598e-007 5.46998e-007 5.96855e-007 -1.7069 20.075 5.0056 0.943008 -11.1513 5.87433 -13.6458 -0.047 -4.849 9.42409 20.5959 31.2269 -28.3255 -0.9759 2.2888 -2.14132 -0.465514 9.81808 -22.1583 -0.53 10.8316 1.364 -16.1814 2.86455 -0.786 0.112 2.5817 -3.54419e-006 -3.46797e-007 -2.6296e-007 -0.3601 -0.878 4.2331 5.4356e-006 2.34447e-006 -3.68752e-006 -1.8127 -1.216 2.2227 -1.14024e-006 -2.97407e-006 9.76404e-007 -0.9571 1.114 1.7695 -3.18055e-015 0 3.18055e-015 -4.1246 0.487 4.1451 -3.54419e-006 -3.46797e-007 -2.6296e-007 -3.4052 -1.454 2.7682 5.4356e-006 2.34447e-006 -3.68752e-006 -1.4531 -1.795 1.2713 -1.14024e-006 -2.97407e-006 9.76404e-007 -5.6954 0.21 2.1184 -3.54419e-006 -3.46797e-007 -2.6296e-007 -3.9766 -1.54 2.3863 5.4356e-006 2.34447e-006 -3.68752e-006 -1.4042 -1.926 1.125 -1.14024e-006 -2.97407e-006 9.76404e-007 -2.0956 0.66 -0.3894 -3.18055e-015 0 3.18055e-015 -5.0395 -0.09 2.4971 -3.54419e-006 -3.46797e-007 -2.6296e-007 -3.7921 -1.552 1.4806 5.4356e-006 2.34447e-006 -3.68752e-006 -1.4655 -1.808 0.9609 -1.14024e-006 -2.97407e-006 9.76404e-007 -4.9141 -1.269 0.3592 -3.54419e-006 -3.46797e-007 -2.6296e-007 -3.1477 -1.685 0.8462 5.4356e-006 2.34447e-006 -3.68752e-006 -0.8055 -1.585 0.7955 -1.14024e-006 -2.97407e-006 9.76404e-007 8.367 -8.2066 0.5982 7.16456 -17.7617 16.1939 2.1923 -43.463 -0.4932 18.7972 85.3703 -14.9767 0.7333 -45.8593 -2.6451 -21.0541 53.4682 28.4966 -8.367 -8.2066 0.5982 -7.19853 -17.763 -16.2411 -2.1923 -43.463 -0.4931 -19.3961 85.3633 15.583 -0.7333 -45.8593 -2.6451 21.174 53.6515 -28.6149 
1.73631 43.7685 13.6754 0 22.3036 -0 0 -1.186 -1.5018 0.217183 3.28149 -0.275619 -2.22045e-016 9.964 0.2134 0.451319 6.56192 -0.565112 0 13.134 -3.2573 0.451319 6.56191 -0.565112 0 20.686 -1.6905 -7.57098 -10.8124 -17.2949 7.10543e-015 7.238 -0.1237 -8.32323e-007 -15.9447 3.9195e-006 1.7069 20.075 5.0056 -15.3977 13.5376 -32.2827 13.6458 -0.047 -4.849 -15.1479 -5.56899 -0.121861 28.3255 -0.9759 2.2888 -22.591 22.9626 -51.215 22.1583 -0.53 10.8316 17.8068 -31.835 -1.17386 0.786 0.112 2.5817 -2.70738e-007 5.46644e-007 5.97119e-007 0.3601 -0.878 4.2331 -5.41476e-007 1.09329e-006 1.19424e-006 1.8127 -1.216 2.2227 -2.70738e-007 5.46644e-007 5.97119e-007 0.9571 1.114 1.7695 -1.05934e-030 -6.36111e-015 -9.54166e-015 4.1246 0.487 4.1451 -2.70738e-007 5.46644e-007 5.97119e-007 3.4052 -1.454 2.7682 -5.41476e-007 1.09329e-006 1.19424e-006 1.4531 -1.795 1.2713 -2.70738e-007 5.46644e-007 5.97119e-007 5.6954 0.21 2.1184 -2.70738e-007 5.46644e-007 5.97119e-007 3.9766 -1.54 2.3863 -5.41476e-007 1.09329e-006 1.19424e-006 1.4042 -1.926 1.125 -2.70738e-007 5.46644e-007 5.97119e-007 2.0956 0.66 -0.3894 -1.05934e-030 -6.36111e-015 -9.54166e-015 5.0395 -0.09 2.4971 -2.70738e-007 5.46644e-007 5.97119e-007 3.7921 -1.552 1.4806 -5.41476e-007 1.09329e-006 1.19424e-006 1.4655 -1.808 0.9609 -2.70738e-007 5.46644e-007 5.97119e-007 4.9141 -1.269 0.3591 -2.70738e-007 5.46644e-007 5.97119e-007 3.1477 -1.685 0.8462 -5.41476e-007 1.09329e-006 1.19424e-006 0.8055 -1.585 0.7955 -2.70738e-007 5.46644e-007 5.97119e-007 -1.7069 20.075 5.0056 1.38237 -10.97 6.44409 -13.6458 -0.047 -4.849 9.32547 20.5362 30.8226 -28.3255 -0.9759 2.2888 -2.17969 -0.464579 9.434 -22.1583 -0.53 10.8316 1.74765 -15.7263 3.01183 -0.786 0.112 2.5817 9.54166e-015 3.18055e-015 -6.36111e-015 -0.3601 -0.878 4.2331 -4.11424e-006 -1.83376e-006 2.25442e-007 -1.8127 -1.216 2.2227 1.14024e-006 2.974e-006 -9.76612e-007 -0.9571 1.114 1.7695 0 3.18055e-015 -0 -4.1246 0.487 4.1451 -0 0 6.36111e-015 -3.4052 -1.454 2.7682 -4.11424e-006 -1.83376e-006 2.25442e-007 -1.4531 -1.795 1.2713 1.14024e-006 2.974e-006 -9.76612e-007 -5.6954 0.21 2.1184 -0 0 6.36111e-015 -3.9766 -1.54 2.3863 -4.11424e-006 -1.83376e-006 2.25442e-007 -1.4042 -1.926 1.125 1.14024e-006 2.974e-006 -9.76612e-007 -2.0956 0.66 -0.3894 0 3.18055e-015 -0 -5.0395 -0.09 2.4971 -0 0 6.36111e-015 -3.7921 -1.552 1.4806 -4.11424e-006 -1.83376e-006 2.25442e-007 -1.4655 -1.808 0.9609 1.14024e-006 2.974e-006 -9.76612e-007 -4.9141 -1.269 0.3592 -0 0 6.36111e-015 -3.1477 -1.685 0.8462 -4.11424e-006 -1.83376e-006 2.25442e-007 -0.8055 -1.585 0.7955 1.14024e-006 2.974e-006 -9.76612e-007 8.367 -8.2066 0.5982 7.2483 -18.7368 16.3619 2.1923 -43.463 -0.4932 20.7215 85.6928 -16.8785 0.7333 -45.8593 -2.6451 -21.0733 53.4844 28.5236 -8.367 -8.2066 0.5982 -7.28211 -18.7386 -16.4088 -2.1923 -43.463 -0.4931 -21.3623 85.6844 17.5267 -0.7333 -45.8593 -2.6451 21.1935 53.6676 -28.6421 
1.73632 43.7292 13.5144 0 22.9562 -0 0 -1.186 -1.5018 0.219234 3.01028 -0.273877 2.22045e-016 9.964 0.2134 0.453838 6.01944 -0.560467 0 13.134 -3.2573 0.453839 6.01945 -0.560467 0 20.686 -1.6905 -7.49604 -10.532 -17.1777 0 7.238 -0.1237 -2.86871e-006 -15.1863 4.83865e-006 1.7069 20.075 5.0056 -15.6888 13.7244 -32.3144 13.6458 -0.047 -4.849 -15.148 -5.56897 -0.121864 28.3255 -0.9759 2.2888 -22.5169 22.7679 -50.7645 22.1583 -0.53 10.8316 17.197 -31.7985 -1.24423 0.786 0.112 2.5817 2.70869e-007 -5.46277e-007 -5.97398e-007 0.3601 -0.878 4.2331 5.41738e-007 -1.09255e-006 -1.1948e-006 1.8127 -1.216 2.2227 8.12607e-007 -1.63883e-006 -1.79219e-006 0.9571 1.114 1.7695 -3.18055e-015 -3.18055e-015 -0 4.1246 0.487 4.1451 2.70869e-007 -5.46277e-007 -5.97398e-007 3.4052 -1.454 2.7682 5.41738e-007 -1.09255e-006 -1.1948e-006 1.4531 -1.795 1.2713 8.12607e-007 -1.63883e-006 -1.79219e-006 5.6954 0.21 2.1184 2.70869e-007 -5.46277e-007 -5.97398e-007 3.9766 -1.54 2.3863 5.41738e-007 -1.09255e-006 -1.1948e-006 1.4042 -1.926 1.125 8.12607e-007 -1.63883e-006 -1.79219e-006 2.0956 0.66 -0.3894 -3.18055e-015 -3.18055e-015 -0 5.0395 -0.09 2.4971 2.70869e-007 -5.46277e-007 -5.97398e-007 3.7921 -1.552 1.4806 5.41738e-007 -1.09255e-006 -1.1948e-006 1.4655 -1.808 0.9609 8.12607e-007 -1.63883e-006 -1.79219e-006 4.9141 -1.269 0.3591 2.70869e-007 -5.46277e-007 -5.97398e-007 3.1477 -1.685 0.8462 5.41738e-007 -1.09255e-006 -1.1948e-006 0.8055 -1.585 0.7955 8.12607e-007 -1.63883e-006 -1.79219e-006 -1.7069 20.075 5.0056 1.81955 -10.7844 7.01198 -13.6458 -0.047 -4.849 9.22643 20.4771 30.4184 -28.3255 -0.9759 2.2888 -2.21801 -0.463342 9.04997 -22.1583 -0.53 10.8316 2.12917 -15.2703 3.15557 -0.786 0.112 2.5817 -1.79824e-006 -5.25884e-006 -2.46474e-006 -0.3601 -0.878 4.2331 6.36111e-015 -1.27222e-014 3.18055e-015 -1.8127 -1.216 2.2227 6.36111e-015 0 9.54166e-015 -0.9571 1.114 1.7695 -3.18055e-015 -6.36111e-015 -6.36111e-015 -4.1246 0.487 4.1451 -1.79824e-006 -5.25884e-006 -2.46474e-006 -3.4052 -1.454 2.7682 -3.18055e-015 -9.54166e-015 3.18055e-015 -1.4531 -1.795 1.2713 6.36111e-015 -3.18055e-015 3.18055e-015 -5.6954 0.21 2.1184 -1.79824e-006 -5.25884e-006 -2.46474e-006 -3.9766 -1.54 2.3863 -3.18055e-015 -9.54166e-015 3.18055e-015 -1.4042 -1.926 1.125 6.36111e-015 -3.18055e-015 3.18055e-015 -2.0956 0.66 -0.3894 -3.18055e-015 -6.36111e-015 -6.36111e-015 -5.0395 -0.09 2.4971 -1.79824e-006 -5.25884e-006 -2.46474e-006 -3.7921 -1.552 1.4806 -3.18055e-015 -9.54166e-015 3.18055e-015 -1.4655 -1.808 0.9609 6.36111e-015 -3.18055e-015 3.18055e-015 -4.9141 -1.269 0.3592 -1.79824e-006 -5.25884e-006 -2.46474e-006 -3.1477 -1.685 0.8462 -3.18055e-015 -9.54166e-015 3.18055e-015 -0.8055 -1.585 0.7955 6.36111e-015 -3.18055e-015 3.18055e-015 8.367 -8.2066 0.5982 7.33508 -19.7112 16.5323 2.1923 -43.463 -0.4932 22.9518 86.0093 -19.0863 0.7333 -45.8593 -2.6451 -21.0928 53.5008 28.5508 -8.367 -8.2066 0.5982 -7.36881 -19.7132 -16.579 -2.1923 -43.463 -0.4931 -23.6375 85.999 19.7796 -0.7333 -45.8593 -2.6451 21.2131 53.6839 -28.6695 
1.73633 43.6895 13.3529 0 23.6087 -0 0 -1.186 -1.5018 0.221285 2.73907 -0.272104 -2.22045e-016 9.964 0.2134 0.456391 5.47705 -0.555765 0 13.134 -3.2573 0.456391 5.47705 -0.555766 0 20.686 -1.6905 -7.42169 -10.2493 -17.0609 0 7.238 -0.1237 1.72515e-006 -14.4284 2.36943e-006 1.7069 20.075 5.0056 -15.9801 13.9115 -32.3452 13.6458 -0.047 -4.849 -15.1479 -5.56898 -0.121862 28.3255 -0.9759 2.2888 -22.4412 22.5738 -50.3145 22.1583 -0.53 10.8316 16.5877 -31.7614 -1.31412 0.786 0.112 2.5817 3.18055e-015 0 3.18055e-015 0.3601 -0.878 4.2331 3.18055e-015 0 3.18055e-015 1.8127 -1.216 2.2227 4.77083e-015 0 -6.36111e-015 0.9571 1.114 1.7695 1.59028e-015 3.18055e-015 3.18055e-015 4.1246 0.487 4.1451 0 0 -0 3.4052 -1.454 2.7682 3.18055e-015 3.18055e-015 -3.18055e-015 1.4531 -1.795 1.2713 3.18055e-015 0 -3.18055e-015 5.6954 0.21 2.1184 0 0 -0 3.9766 -1.54 2.3863 3.18055e-015 3.18055e-015 -3.18055e-015 1.4042 -1.926 1.125 3.18055e-015 0 -3.18055e-015 2.0956 0.66 -0.3894 1.59028e-015 3.18055e-015 3.18055e-015 5.0395 -0.09 2.4971 0 0 -0 3.7921 -1.552 1.4806 3.18055e-015 3.18055e-015 -3.18055e-015 1.4655 -1.808 0.9609 3.18055e-015 0 -3.18055e-015 4.9141 -1.269 0.3591 0 0 -0 3.1477 -1.685 0.8462 3.18055e-015 3.18055e-015 -3.18055e-015 0.8055 -1.585 0.7955 3.18055e-015 0 -3.18055e-015 -1.7069 20.075 5.0056 2.25448 -10.5945 7.57793 -13.6458 -0.047 -4.849 9.12701 20.4187 30.0143 -28.3255 -0.9759 2.2888 -2.25634 -0.461882 8.66594 -22.1583 -0.53 10.8316 2.50865 -14.8135 3.29585 -0.786 0.112 2.5817 -9.54166e-015 0 3.18055e-015 -0.3601 -0.878 4.2331 -6.36111e-015 0 -3.18055e-015 -1.8127 -1.216 2.2227 -0 0 3.18055e-015 -0.9571 1.114 1.7695 -6.36111e-015 -3.18055e-015 3.18055e-015 -4.1246 0.487 4.1451 -2.11868e-030 9.54166e-015 1.27222e-014 -3.4052 -1.454 2.7682 6.36111e-015 9.54166e-015 6.36111e-015 -1.4531 -1.795 1.2713 9.54166e-015 6.36111e-015 -0 -5.6954 0.21 2.1184 -2.11868e-030 9.54166e-015 1.27222e-014 -3.9766 -1.54 2.3863 6.36111e-015 9.54166e-015 6.36111e-015 -1.4042 -1.926 1.125 9.54166e-015 6.36111e-015 -0 -2.0956 0.66 -0.3894 -6.36111e-015 -3.18055e-015 3.18055e-015 -5.0395 -0.09 2.4971 -2.11868e-030 9.54166e-015 1.27222e-014 -3.7921 -1.552 1.4806 6.36111e-015 9.54166e-015 6.36111e-015 -1.4655 -1.808 0.9609 9.54166e-015 6.36111e-015 -0 -4.9141 -1.269 0.3592 -2.11868e-030 9.54166e-015 1.27222e-014 -3.1477 -1.685 0.8462 6.36111e-015 9.54166e-015 6.36111e-015 -0.8055 -1.585 0.7955 9.54166e-015 6.36111e-015 -0 8.367 -8.2066 0.5982 7.42492 -20.6856 16.7054 2.1923 -43.463 -0.4932 25.5642 86.3192 -21.6759 0.7333 -45.8593 -2.6451 -21.1123 53.5172 28.5782 -8.367 -8.2066 0.5982 -7.45862 -20.6873 -16.7518 -2.1923 -43.463 -0.4931 -26.2964 86.3063 22.4158 -0.7333 -45.8593 -2.6451 21.2328 53.7002 -28.697 
